<svg xmlns="http://www.w3.org/2000/svg" xmlns:xlink="http://www.w3.org/1999/xlink" version="1.1" x="0px" y="0px" viewBox="0 0 95 118.75" enable-background="new 0 0 95 95" xml:space="preserve"><g><path d="M29.459,33.43c-7.591,13.474-6.894,14.648,8.567,14.478c-15.461,0.171-16.131,1.36-8.251,14.665   c-7.878-13.306-9.24-13.291-16.828,0.19c7.587-13.481,6.892-14.657-8.571-14.483c15.463-0.174,16.128-1.361,8.252-14.667   C20.504,46.918,21.869,46.903,29.459,33.43z"/></g><g><path d="M68.497,55.646c-13.977,13.387-13.574,15.046,5.011,20.461c-18.585-5.416-19.814-4.237-15.215,14.562   c-4.6-18.799-6.242-19.274-20.221-5.888c13.979-13.387,13.575-15.046-5.013-20.452c18.588,5.406,19.817,4.228,15.22-14.574   C52.876,68.557,54.521,69.032,68.497,55.646z"/></g><g><path d="M51.698,19.967c16.764,4.075,20.243,1.959,24.309-14.803c-4.065,16.76-1.957,20.231,14.811,24.309   c-16.768-4.078-20.24-1.958-24.313,14.806C70.575,27.515,68.462,24.042,51.698,19.967z"/></g><g><path d="M73.508,46.765c3.613,1.143,4.407,0.729,5.546-2.883c-1.139,3.61-0.729,4.403,2.884,5.546   c-3.612-1.143-4.405-0.732-5.546,2.883C77.532,48.697,77.121,47.907,73.508,46.765z"/></g><g><path d="M44.918,33.762c2.819,2.532,3.709,2.486,6.242-0.333c-2.533,2.818-2.484,3.71,0.334,6.242   c-2.818-2.532-3.71-2.488-6.242,0.333C47.784,37.183,47.737,36.294,44.918,33.762z"/></g><g><path d="M78.782,73.094c3.613,1.141,4.405,0.73,5.547-2.883c-1.142,3.613-0.729,4.405,2.884,5.546   c-3.613-1.141-4.407-0.732-5.547,2.883C82.806,75.024,82.396,74.234,78.782,73.094z"/></g><g><path d="M14.771,80.907c3.613,1.141,4.406,0.731,5.547-2.883c-1.142,3.614-0.73,4.406,2.884,5.546   c-3.614-1.14-4.407-0.731-5.547,2.883C18.795,82.839,18.384,82.048,14.771,80.907z"/></g><g><path d="M14.771,20.986c3.612,1.142,4.405,0.731,5.546-2.883c-1.142,3.614-0.729,4.406,2.884,5.547   c-3.613-1.142-4.407-0.733-5.546,2.883C18.794,22.919,18.382,22.127,14.771,20.986z"/></g><g><path d="M28.543,4.803c6.737,6.839,9.001,6.857,15.838,0.121c-6.837,6.738-6.854,9.002-0.119,15.834   c-6.734-6.831-9.001-6.853-15.835-0.112C35.262,13.904,35.28,11.642,28.543,4.803z"/></g><text x="0" y="110" fill="#000000" font-size="5px" font-weight="bold" font-family="'Helvetica Neue', Helvetica, Arial-Unicode, Arial, Sans-serif">Created by Lilit Kalachyan</text><text x="0" y="115" fill="#000000" font-size="5px" font-weight="bold" font-family="'Helvetica Neue', Helvetica, Arial-Unicode, Arial, Sans-serif">from the Noun Project</text></svg>