<svg xmlns="http://www.w3.org/2000/svg" xmlns:xlink="http://www.w3.org/1999/xlink" version="1.1" x="0px" y="0px" viewBox="0 0 100 125" enable-background="new 0 0 100 100" xml:space="preserve"><g><path d="M21.117,18.375c0,0,0.698,0.624,1.913,1.893c1.211,1.269,2.946,3.188,4.869,5.857c1.918,2.665,4.081,6.06,5.915,10.295   c1.819,4.218,3.311,9.353,3.312,15.127c0.006,0.359,0.025,0.722,0.021,1.085c-0.033,0.362-0.065,0.727-0.099,1.093   c-0.067,0.732-0.134,1.473-0.203,2.221l-0.052,0.563l-0.113,0.585l-0.216,1.088c-0.066,0.36-0.221,0.771-0.331,1.158   c-0.122,0.393-0.23,0.793-0.417,1.163c-0.606,1.489-1.586,3.108-3.375,3.988l-0.68,0.289c-0.23,0.088-0.484,0.108-0.728,0.161   c-0.493,0.126-0.989,0.062-1.488,0.041c-0.97-0.147-1.899-0.496-2.669-1.022c-1.572-1.029-2.714-2.504-3.538-4.103   c-0.823-1.608-1.323-3.368-1.562-5.17c-0.214-1.807-0.125-3.646,0.166-5.459c0.202-0.894,0.356-1.808,0.669-2.675   c0.147-0.436,0.263-0.887,0.439-1.313l0.538-1.278c1.485-3.401,3.763-6.423,6.375-9.088c2.599-2.688,5.651-4.954,8.786-6.979   c3.122-2.012,6.476-3.936,10.121-5.294c1.838-0.656,3.756-1.232,5.84-1.356c2.044-0.138,4.35,0.138,6.275,1.395   c0.986,0.572,1.759,1.42,2.439,2.277c0.632,0.893,1.142,1.844,1.505,2.821c0.737,1.953,1.044,3.952,1.16,5.916   c0.062,0.984,0.057,1.962,0.016,2.938c-0.019,0.488-0.056,0.975-0.1,1.465l-0.088,0.76l-0.146,0.75   c-0.343,1.784-0.629,3.59-0.873,5.388c-0.476,3.6-0.805,7.191-0.87,10.727c-0.06,3.528,0.13,7.027,0.892,10.271   c0.733,3.208,2.207,6.284,4.763,7.571c0.33,0.129,0.644,0.293,0.979,0.407l0.993,0.252l1.235,0.151   c0.351-0.001,0.697,0.024,1.05,0.016c1.435-0.06,2.778-0.516,3.438-1.432c0.647-0.899,0.665-2.235,0.066-3.408   c-0.546-1.191-1.553-2.195-2.688-2.961c-1.142-0.769-2.433-1.315-3.758-1.679c-1.336-0.335-2.692-0.533-4.041-0.579   c-2.7-0.117-5.315,0.314-7.751,0.883c-2.446,0.586-4.674,1.429-6.822,2.229c-4.256,1.601-7.913,3.114-10.806,4.618   c-2.879,1.496-5.079,2.89-6.151,4.262c-0.546,0.664-0.737,1.357-0.584,1.787c0.059,0.216,0.171,0.354,0.246,0.438   c0.078,0.085,0.127,0.117,0.127,0.117s-0.051-0.029-0.134-0.109c-0.08-0.081-0.203-0.213-0.278-0.432   c-0.187-0.436-0.031-1.179,0.492-1.896c1.028-1.471,3.153-3.053,6.004-4.679c2.846-1.648,6.475-3.345,10.672-5.144   c2.082-0.886,4.361-1.868,6.864-2.588c2.506-0.703,5.239-1.23,8.157-1.208c2.894,0.029,6.048,0.536,8.861,2.299   c1.39,0.872,2.688,2.076,3.503,3.713c0.411,0.806,0.7,1.729,0.702,2.725c0.019,0.985-0.255,2.036-0.853,2.903   c-0.59,0.884-1.48,1.474-2.372,1.866c-0.908,0.416-1.849,0.534-2.773,0.625c-0.47,0.025-0.952,0.006-1.43,0.004l-1.244-0.124   c-0.563-0.1-0.962-0.206-1.451-0.317c-0.461-0.142-0.907-0.349-1.361-0.528c-1.789-0.848-3.203-2.34-4.169-3.964   c-0.987-1.632-1.601-3.403-2.054-5.187c-0.89-3.58-1.126-7.255-1.119-10.933c0.005-3.683,0.31-7.381,0.791-11.079   c0.243-1.851,0.526-3.697,0.875-5.556c0.196-0.8,0.222-1.658,0.271-2.551c0.032-0.88,0.033-1.766-0.026-2.641   c-0.109-1.747-0.4-3.48-0.995-5.022c-0.291-0.775-0.683-1.475-1.129-2.108c-0.486-0.588-0.992-1.159-1.639-1.521   c-1.227-0.827-2.834-1.064-4.484-0.964c-1.659,0.083-3.365,0.573-5.025,1.16l-1.245,0.47c-0.412,0.168-0.817,0.367-1.226,0.547   c-0.822,0.351-1.621,0.769-2.417,1.193c-0.808,0.402-1.577,0.862-2.348,1.316l-1.158,0.681l-1.162,0.748   c-3.043,1.961-5.919,4.045-8.384,6.515c-2.465,2.444-4.582,5.188-5.947,8.209l-0.498,1.133c-0.164,0.378-0.267,0.774-0.404,1.158   c-0.293,0.767-0.431,1.563-0.625,2.346c-0.267,1.582-0.384,3.172-0.239,4.727c0.17,1.547,0.563,3.049,1.212,4.393   c0.644,1.338,1.557,2.528,2.665,3.288c0.546,0.399,1.148,0.616,1.734,0.731c0.292,0.003,0.589,0.077,0.867-0.007   c0.139-0.031,0.288-0.022,0.422-0.075l0.402-0.165c1.079-0.466,1.915-1.622,2.46-2.878c0.17-0.301,0.264-0.628,0.376-0.947   c0.104-0.331,0.241-0.613,0.321-0.981l0.251-1.081l0.114-0.493l0.064-0.528c0.087-0.703,0.173-1.399,0.258-2.09   c0.043-0.346,0.086-0.689,0.129-1.031c0.016-0.344,0.007-0.688,0.012-1.029c0.153-5.47-1.039-10.482-2.626-14.682   c-1.603-4.213-3.583-7.661-5.363-10.382c-1.8-2.714-3.371-4.751-4.511-6.079C21.776,19.041,21.117,18.375,21.117,18.375z"/></g><text x="0" y="115" fill="#000000" font-size="5px" font-weight="bold" font-family="'Helvetica Neue', Helvetica, Arial-Unicode, Arial, Sans-serif">Created by Charlotte Pelobello</text><text x="0" y="120" fill="#000000" font-size="5px" font-weight="bold" font-family="'Helvetica Neue', Helvetica, Arial-Unicode, Arial, Sans-serif">from the Noun Project</text></svg>