<svg xmlns="http://www.w3.org/2000/svg" xmlns:xlink="http://www.w3.org/1999/xlink" version="1.1" x="0px" y="0px" viewBox="0 0 100 125" style="enable-background:new 0 0 100 100;" xml:space="preserve"><g><path d="M81.5605469,17.0830078c0-1.2514648,1.0180664-2.2695312,2.2695312-2.2695312   c1.2509766,0,2.269043,1.0180664,2.269043,2.2695312c0,1.2509766-1.0180664,2.269043-2.269043,2.269043   C82.5786133,19.3520508,81.5605469,18.3339844,81.5605469,17.0830078z M45.4692383,25.4536133   c1.0875244,0,1.9968262-0.7695312,2.2169189-1.7921753c-0.041748,0.3223267,0.166626,0.6269531,0.4901123,0.6906128   l0.980957,0.1933594c0.0410156,0.0083008,0.081543,0.012207,0.1210938,0.012207   c0.2915039,0,0.5522461-0.2060547,0.6103516-0.5024414c0.0668945-0.3374023-0.152832-0.6650391-0.4902344-0.7314453   l-0.980957-0.1933594c-0.3338013-0.0662842-0.6409302,0.1427612-0.7200317,0.4625244   c0.024353-0.1330566,0.0413208-0.2687988,0.0413208-0.4088135c0-1.2514648-1.0180664-2.2695312-2.2695312-2.2695312   s-2.2695312,1.0180664-2.2695312,2.2695312S44.2177734,25.4536133,45.4692383,25.4536133z M32.6040039,22.8911133   c1.2509766,0,2.269043-1.0180664,2.269043-2.2695312s-1.0180664-2.2695312-2.269043-2.2695312   c-1.2514648,0-2.2695312,1.0180664-2.2695312,2.2695312S31.3525391,22.8911133,32.6040039,22.8911133z M90.1546631,55.9772949   l-0.0125732-0.0861816c-0.0498047-0.3413086-0.3706055-0.5737305-0.7060547-0.5263672   c-0.340332,0.0498047-0.5761719,0.3657227-0.5263672,0.7060547l0.0118408,0.0812378   c-0.7869873,0.3566895-1.3380127,1.1455078-1.3380127,2.06427c0,0.2127686,0.0388794,0.4147339,0.0938721,0.6101685   L87.1933594,59.125c-0.2924805,0.1806641-0.3833008,0.5644531-0.203125,0.8574219   c0.1176758,0.1904297,0.3217773,0.2958984,0.5307617,0.2958984c0.1118164,0,0.2246094-0.0302734,0.3266602-0.0927734   l0.4829102-0.2978516c0.4035034,0.3678589,0.9346924,0.5981445,1.5224609,0.5981445   c1.2509766,0,2.269043-1.0180664,2.269043-2.2695312C92.1220703,57.0681763,91.262207,56.1265869,90.1546631,55.9772949z    M20.1333008,74.7255859c0.8847656,0,1.6446533-0.513916,2.0187988-1.2543335   c0.0809937,0.1237793,0.2016602,0.2225952,0.3557129,0.2636108l0.9663086,0.2578125   c0.0537109,0.0146484,0.1079102,0.0214844,0.1611328,0.0214844c0.2749023,0,0.5268555-0.184082,0.6010742-0.4624023   c0.0888672-0.3325195-0.1088867-0.6738281-0.440918-0.762207l-0.9663086-0.2578125   c-0.1528931-0.0408325-0.3068237-0.0151367-0.4391479,0.0519409c0.0024414-0.0430908,0.0128784-0.0839233,0.0128784-0.1276245   c0-1.2514648-1.0180664-2.2695312-2.2695312-2.2695312c-1.2509766,0-2.269043,1.0180664-2.269043,2.2695312   S18.8823242,74.7255859,20.1333008,74.7255859z M67.421875,72.7866211l0.8510742-0.5249023   c0.2924805-0.1806641,0.3833008-0.5644531,0.203125-0.8574219c-0.1816406-0.2924805-0.565918-0.3823242-0.8574219-0.203125   l-0.8510742,0.5249023c-0.2924805,0.1806641-0.3833008,0.5644531-0.203125,0.8574219   c0.1181641,0.1904297,0.3217773,0.2958984,0.5307617,0.2958984C67.2070312,72.8793945,67.3198242,72.8491211,67.421875,72.7866211z    M77.6347656,66.4858398l0.8510742-0.5249023c0.2924805-0.1806641,0.3833008-0.5644531,0.203125-0.8574219   c-0.1821289-0.2924805-0.5649414-0.3828125-0.8574219-0.203125l-0.8510742,0.5249023   c-0.2924805,0.1806641-0.3833008,0.5644531-0.203125,0.8574219c0.1181641,0.1904297,0.3217773,0.2958984,0.5307617,0.2958984   C77.4199219,66.5786133,77.5327148,66.5483398,77.6347656,66.4858398z M13.8989258,78.0844727l-0.6904297,0.7231445   c-0.2373047,0.2490234-0.2280273,0.6430664,0.0205078,0.8808594c0.1206055,0.1147461,0.2753906,0.171875,0.4301758,0.171875   c0.1640625,0,0.328125-0.0644531,0.4506836-0.1923828l0.6899414-0.7231445   c0.237793-0.2490234,0.2285156-0.6430664-0.0200195-0.8803711S14.137207,77.8359375,13.8989258,78.0844727z M85.0332031,25.9311523   c0.0302734,0,0.0605469-0.0024414,0.0908203-0.0068359c0.340332-0.0498047,0.5761719-0.3657227,0.5263672-0.7060547   l-0.1445312-0.9897461c-0.0498047-0.3408203-0.3720703-0.5751953-0.7060547-0.5263672   c-0.340332,0.0498047-0.5761719,0.3657227-0.5263672,0.7060547l0.1445312,0.9897461   C84.4633789,25.7080078,84.7294922,25.9311523,85.0332031,25.9311523z M17.5415039,75.1704102   c-0.2480469-0.2363281-0.6420898-0.2285156-0.8803711,0.0209961l-0.6904297,0.7236328   c-0.2373047,0.2485352-0.2280273,0.6430664,0.0209961,0.8803711c0.1206055,0.1147461,0.2749023,0.171875,0.4296875,0.171875   c0.1640625,0,0.328125-0.0644531,0.4506836-0.1928711L17.5625,76.0507812   C17.7998047,75.8022461,17.7905273,75.4077148,17.5415039,75.1704102z M74.2304688,68.5859375l0.8510742-0.5253906   c0.2924805-0.1806641,0.3833008-0.5644531,0.2026367-0.8569336s-0.5634766-0.3823242-0.8569336-0.2026367l-0.8510742,0.5253906   c-0.2924805,0.1806641-0.3833008,0.5644531-0.2026367,0.8569336c0.1176758,0.190918,0.3217773,0.2958984,0.5302734,0.2958984   C74.015625,68.6791992,74.128418,68.6489258,74.2304688,68.5859375z M85.612793,29.8886719   c0.0302734,0,0.0605469-0.0024414,0.0908203-0.0068359c0.340332-0.0498047,0.5761719-0.3657227,0.5263672-0.7060547   l-0.1445312-0.9892578c-0.0498047-0.3413086-0.3701172-0.5737305-0.7060547-0.5263672   c-0.340332,0.0498047-0.5761719,0.3657227-0.5263672,0.7060547l0.1445312,0.9892578   C85.0429688,29.6655273,85.309082,29.8886719,85.612793,29.8886719z M71.8798828,69.3037109   c-0.1801758-0.2929688-0.5639648-0.3828125-0.8569336-0.2026367l-0.8510742,0.5253906   c-0.2924805,0.1806641-0.3833008,0.5644531-0.2026367,0.8569336c0.1176758,0.190918,0.3217773,0.2958984,0.5302734,0.2958984   c0.1118164,0,0.2246094-0.0302734,0.3266602-0.0932617l0.8510742-0.5253906   C71.9697266,69.9799805,72.0605469,69.5961914,71.8798828,69.3037109z M84.5454102,21.9663086   c0.340332-0.0498047,0.5756836-0.3662109,0.5258789-0.706543l-0.1450195-0.9892578   c-0.0493164-0.340332-0.3637695-0.5708008-0.706543-0.5258789c-0.340332,0.0498047-0.5756836,0.3662109-0.5258789,0.706543   l0.1450195,0.9892578c0.0454102,0.3095703,0.3115234,0.5327148,0.6152344,0.5327148   C84.484375,21.9731445,84.5146484,21.9707031,84.5454102,21.9663086z M87.3515625,41.762207   c0.0302734,0,0.0605469-0.0024414,0.0913086-0.0068359c0.340332-0.0498047,0.5756836-0.3662109,0.5258789-0.706543   l-0.1450195-0.9897461c-0.0498047-0.340332-0.3681641-0.5737305-0.706543-0.5258789   c-0.340332,0.0498047-0.5756836,0.3662109-0.5258789,0.706543l0.1450195,0.9897461   C86.7817383,41.5390625,87.0478516,41.762207,87.3515625,41.762207z M84.6401367,60.7001953l-0.8510742,0.5249023   c-0.2924805,0.1806641-0.3833008,0.5644531-0.203125,0.8574219c0.1181641,0.1904297,0.3217773,0.2958984,0.5307617,0.2958984   c0.1118164,0,0.2246094-0.0302734,0.3266602-0.0927734l0.8510742-0.5249023   c0.2924805-0.1806641,0.3833008-0.5644531,0.203125-0.8574219C85.3168945,60.6108398,84.9321289,60.5209961,84.6401367,60.7001953z    M86.8632812,37.7973633c0.340332-0.0498047,0.5756836-0.3662109,0.5258789-0.706543l-0.1450195-0.9892578   c-0.0498047-0.340332-0.3652344-0.5756836-0.706543-0.5258789c-0.340332,0.0498047-0.5756836,0.3662109-0.5258789,0.706543   l0.1450195,0.9892578c0.0454102,0.3095703,0.3115234,0.5327148,0.6152344,0.5327148   C86.8022461,37.8041992,86.8325195,37.8017578,86.8632812,37.7973633z M86.2836914,33.8398438   c0.340332-0.0498047,0.5756836-0.3662109,0.5258789-0.706543l-0.1450195-0.9897461   c-0.0498047-0.340332-0.3671875-0.5712891-0.706543-0.5258789c-0.340332,0.0498047-0.5756836,0.3662109-0.5258789,0.706543   l0.1450195,0.9897461c0.0454102,0.3095703,0.3115234,0.5327148,0.6152344,0.5327148   C86.2226562,33.8466797,86.2529297,33.8442383,86.2836914,33.8398438z M40.3276367,22.7949219l0.980957,0.1958008   c0.0415039,0.0083008,0.0825195,0.012207,0.1225586,0.012207c0.2910156,0,0.5512695-0.2050781,0.6103516-0.5009766   c0.0673828-0.3374023-0.1518555-0.6655273-0.4887695-0.7329102l-0.980957-0.1958008   c-0.3427734-0.0673828-0.6655273,0.1523438-0.7329102,0.4887695   C39.7714844,22.3994141,39.9907227,22.7275391,40.3276367,22.7949219z M41.3896484,78.1323242   c-0.0888672,0.3320312,0.1083984,0.6733398,0.440918,0.762207l0.9663086,0.2583008   c0.0537109,0.0146484,0.1079102,0.0214844,0.1611328,0.0214844c0.2749023,0,0.5268555-0.1835938,0.6010742-0.4624023   c0.0888672-0.3320312-0.1083984-0.6733398-0.440918-0.762207l-0.9663086-0.2583008   C41.8232422,77.6035156,41.4785156,77.7998047,41.3896484,78.1323242z M37.5253906,77.1005859   c-0.0888672,0.3325195,0.1083984,0.6738281,0.440918,0.762207l0.9658203,0.2578125   c0.0537109,0.0146484,0.1079102,0.0214844,0.1611328,0.0214844c0.2749023,0,0.5268555-0.184082,0.6010742-0.4624023   c0.0888672-0.3325195-0.1083984-0.6738281-0.440918-0.762207l-0.9658203-0.2578125   C37.9580078,76.5708008,37.6142578,76.7685547,37.5253906,77.1005859z M52.1015625,25.1254883l0.0994263,0.0195312   c0.098999,1.1607666,1.06427,2.078125,2.2496948,2.078125c1.2385864,0,2.2451172-0.9981689,2.2657471-2.2319336   l0.5306396-0.1420898c0.3320312-0.0888672,0.5292969-0.4306641,0.4404297-0.7626953   c-0.0893555-0.3325195-0.4301758-0.5332031-0.7626953-0.4404297l-0.5361938,0.1436157   c-0.397583-0.6592407-1.1135254-1.1055298-1.9379272-1.1055298c-0.8782959,0-1.6331177,0.5070801-2.0100708,1.2391357   l-0.0988159-0.0194092c-0.340332-0.0712891-0.6650391,0.1538086-0.730957,0.4907227   C51.5444336,24.7319336,51.7641602,25.0595703,52.1015625,25.1254883z M49.8813477,79.7558594   c-0.3305664-0.0874023-0.6728516,0.1088867-0.762207,0.440918c-0.0888672,0.3325195,0.1083984,0.6738281,0.440918,0.762207   L50.4161377,81.1875c0.0217285,1.2324219,1.0275879,2.2294922,2.2655029,2.2294922   c1.2509766,0,2.269043-1.0180664,2.269043-2.269043c0-0.2324219-0.0452881-0.4523315-0.1104736-0.6635742   c0.135376-0.1970825,0.1519775-0.4628906,0.0186768-0.6796875c-0.1322021-0.2137451-0.3726196-0.3161621-0.6063232-0.2877808   c-0.0232544-0.0223999-0.050415-0.0402222-0.074646-0.0616455c0.0112305-0.0180664,0.0317993-0.026062,0.0413208-0.0455933   l0.4375-0.8994141c0.1503906-0.3095703,0.0214844-0.6821289-0.2875977-0.8325195   c-0.3100586-0.1503906-0.6821289-0.0214844-0.8325195,0.2875977l-0.4375,0.8994141   c-0.0085449,0.0175781-0.0073242,0.0365601-0.0140991,0.0545044c-0.1314087-0.0237427-0.2652588-0.0408325-0.4033813-0.0408325   c-0.8251343,0-1.541687,0.4470825-1.9389648,1.1073608L49.8813477,79.7558594z M46.6616211,80.1845703   c0.0537109,0.0146484,0.1079102,0.0214844,0.1611328,0.0214844c0.2749023,0,0.5268555-0.184082,0.6010742-0.4624023   c0.0888672-0.3325195-0.1088867-0.6738281-0.440918-0.762207l-0.9663086-0.2578125   c-0.3310547-0.0878906-0.6733398,0.1088867-0.762207,0.440918c-0.0888672,0.3325195,0.1088867,0.6738281,0.440918,0.762207   L46.6616211,80.1845703z M87.1708984,44.1977539l0.1450195,0.9892578c0.0454102,0.3095703,0.3115234,0.5327148,0.6152344,0.5327148   c0.0302734,0,0.0605469-0.0024414,0.0913086-0.0068359c0.340332-0.0498047,0.5756836-0.3662109,0.5258789-0.706543   l-0.1450195-0.9892578c-0.0498047-0.340332-0.3662109-0.5722656-0.706543-0.5258789   C87.3564453,43.5410156,87.1210938,43.8574219,87.1708984,44.1977539z M26.3725586,74.7666016l0.9658203,0.2578125   c0.0537109,0.0146484,0.1079102,0.0214844,0.1611328,0.0214844c0.2749023,0,0.5268555-0.184082,0.6010742-0.4624023   c0.0888672-0.3325195-0.1083984-0.6738281-0.440918-0.762207l-0.9658203-0.2578125   c-0.328125-0.090332-0.6733398,0.109375-0.762207,0.440918C25.8427734,74.3369141,26.0400391,74.6782227,26.3725586,74.7666016z    M30.2368164,75.7988281l0.9663086,0.2578125c0.0537109,0.0146484,0.1079102,0.0214844,0.1611328,0.0214844   c0.2749023,0,0.5268555-0.184082,0.6010742-0.4624023c0.0888672-0.3325195-0.1088867-0.6738281-0.440918-0.762207   l-0.9663086-0.2578125c-0.3305664-0.0898438-0.6738281,0.109375-0.762207,0.440918   C29.7070312,75.3691406,29.9047852,75.7104492,30.2368164,75.7988281z M36.4052734,22.0136719l0.980957,0.1953125   c0.0410156,0.0083008,0.0820312,0.012207,0.1220703,0.012207c0.2910156,0,0.5512695-0.2050781,0.6103516-0.5014648   c0.0668945-0.3374023-0.1518555-0.6650391-0.4892578-0.7324219l-0.980957-0.1953125   c-0.3398438-0.0693359-0.6655273,0.1523438-0.7324219,0.4892578   C35.8491211,21.6186523,36.0678711,21.9462891,36.4052734,22.0136719z M12.0170898,80.9570312   c-0.2255859-0.2144775-0.5653076-0.2173462-0.8052368-0.0314331c-0.3190308-0.1713867-0.6780396-0.2776489-1.0648804-0.2776489   c-1.2509766,0-2.269043,1.0180664-2.269043,2.269043c0,1.2514648,1.0180664,2.2695312,2.269043,2.2695312   c1.2514648,0,2.2695312-1.0180664,2.2695312-2.2695312c0-0.4247437-0.1246948-0.8180542-0.3287354-1.1583862   C12.2606812,81.5110474,12.2426147,81.1719971,12.0170898,80.9570312z M33.6606445,76.0683594   c-0.0888672,0.3320312,0.1083984,0.6733398,0.440918,0.762207l0.9663086,0.2583008   c0.0537109,0.0146484,0.1079102,0.0214844,0.1611328,0.0214844c0.2749023,0,0.5268555-0.1835938,0.6010742-0.4624023   c0.0888672-0.3320312-0.1083984-0.6733398-0.440918-0.762207l-0.9663086-0.2583008   C34.0927734,75.5380859,33.7495117,75.7358398,33.6606445,76.0683594z M75.4379883,19.9541016   c0.0532227,0,0.1079102-0.0068359,0.1616211-0.0214844l0.9658203-0.2587891   c0.3325195-0.0888672,0.5292969-0.4306641,0.4404297-0.7626953c-0.0893555-0.3325195-0.434082-0.5327148-0.7626953-0.4404297   l-0.9658203,0.2587891c-0.3325195,0.0888672-0.5292969,0.4306641-0.4404297,0.7626953   C74.9116211,19.7705078,75.1630859,19.9541016,75.4379883,19.9541016z M57.4057617,77.5014648l-0.8510742,0.5249023   c-0.2924805,0.1806641-0.3833008,0.5644531-0.203125,0.8574219c0.1181641,0.1904297,0.3217773,0.2958984,0.5307617,0.2958984   c0.1118164,0,0.2246094-0.0302734,0.3266602-0.0927734l0.8510742-0.5249023   c0.2924805-0.1806641,0.3833008-0.5644531,0.203125-0.8574219C58.0820312,77.4116211,57.6977539,77.3217773,57.4057617,77.5014648z    M79.3017578,18.9189453c0.0532227,0,0.1079102-0.0068359,0.1616211-0.0214844l0.9658203-0.2587891   c0.3325195-0.0888672,0.5292969-0.4306641,0.4404297-0.7626953c-0.0893555-0.3325195-0.4326172-0.5332031-0.7626953-0.4404297   l-0.9658203,0.2587891c-0.3325195,0.0888672-0.5292969,0.4306641-0.4404297,0.7626953   C78.7753906,18.7353516,79.0268555,18.9189453,79.3017578,18.9189453z M82.0932617,63.003418   c-0.1821289-0.2924805-0.5654297-0.3828125-0.8574219-0.203125l-0.8510742,0.5249023   c-0.2924805,0.1806641-0.3833008,0.5644531-0.203125,0.8574219c0.1181641,0.1904297,0.3217773,0.2958984,0.5307617,0.2958984   c0.1118164,0,0.2246094-0.0302734,0.3266602-0.0927734l0.8510742-0.5249023   C82.1826172,63.6801758,82.2734375,63.2963867,82.0932617,63.003418z M67.7104492,22.0244141   c0.0532227,0,0.1079102-0.0068359,0.1616211-0.0214844l0.9658203-0.2587891   c0.3325195-0.0888672,0.5292969-0.4306641,0.4404297-0.7626953c-0.0893555-0.3325195-0.434082-0.5322266-0.7626953-0.4404297   l-0.9658203,0.2587891c-0.3325195,0.0888672-0.5292969,0.4306641-0.4404297,0.7626953   C67.184082,21.8408203,67.4355469,22.0244141,67.7104492,22.0244141z M61.6674805,75.6044922   c-0.1811523-0.2924805-0.5654297-0.3828125-0.8574219-0.203125l-0.8510742,0.5249023   c-0.2924805,0.1806641-0.3833008,0.5644531-0.203125,0.8574219c0.1181641,0.1904297,0.3217773,0.2958984,0.5307617,0.2958984   c0.1118164,0,0.2246094-0.0302734,0.3266602-0.0927734l0.8510742-0.5249023   C61.7568359,76.28125,61.8476562,75.8974609,61.6674805,75.6044922z M59.9829102,24.0942383   c0.0532227,0,0.1074219-0.0068359,0.1616211-0.0214844l0.9663086-0.2587891   c0.3320312-0.0888672,0.5292969-0.4306641,0.4404297-0.7626953c-0.0893555-0.3325195-0.4287109-0.5307617-0.7626953-0.4404297   l-0.9663086,0.2587891c-0.3320312,0.0888672-0.5292969,0.4306641-0.4404297,0.7626953   C59.456543,23.9106445,59.7080078,24.0942383,59.9829102,24.0942383z M63.8466797,23.0595703   c0.0532227,0,0.1079102-0.0068359,0.1616211-0.0214844l0.9658203-0.2587891   c0.3325195-0.0888672,0.5292969-0.4306641,0.4404297-0.7626953c-0.0898438-0.3325195-0.4326172-0.5317383-0.7626953-0.4404297   l-0.9658203,0.2587891c-0.3325195,0.0888672-0.5292969,0.4306641-0.4404297,0.7626953   C63.3203125,22.8759766,63.5717773,23.0595703,63.8466797,23.0595703z M63.1601562,74.6835938   c0.1181641,0.1904297,0.3217773,0.2958984,0.5307617,0.2958984c0.1118164,0,0.2246094-0.0302734,0.3266602-0.0927734   l0.8510742-0.5249023c0.2924805-0.1806641,0.3833008-0.5644531,0.203125-0.8574219   c-0.1816406-0.2924805-0.565918-0.3828125-0.8574219-0.203125l-0.8510742,0.5249023   C63.0708008,74.0068359,62.9799805,74.390625,63.1601562,74.6835938z M71.5742188,20.9892578   c0.0532227,0,0.1079102-0.0068359,0.1616211-0.0214844l0.9658203-0.2587891   c0.3325195-0.0888672,0.5292969-0.4306641,0.4404297-0.7626953c-0.0898438-0.3325195-0.4326172-0.5327148-0.7626953-0.4404297   l-0.9658203,0.2587891c-0.3325195,0.0888672-0.5292969,0.4306641-0.4404297,0.7626953   C71.0478516,20.8056641,71.2993164,20.9892578,71.5742188,20.9892578z M87.7504883,48.1557617l0.1450195,0.9892578   c0.0454102,0.3095703,0.3115234,0.5327148,0.6152344,0.5327148c0.0302734,0,0.0605469-0.0024414,0.0913086-0.0068359   c0.340332-0.0498047,0.5756836-0.3662109,0.5258789-0.706543l-0.1450195-0.9892578   c-0.0498047-0.340332-0.3637695-0.5712891-0.706543-0.5258789C87.9360352,47.4990234,87.7006836,47.8154297,87.7504883,48.1557617z    M88.3300781,52.112793l0.1445312,0.9897461c0.0454102,0.3100586,0.3115234,0.5332031,0.6152344,0.5332031   c0.0302734,0,0.0605469-0.0024414,0.0908203-0.0068359c0.340332-0.0498047,0.5761719-0.3657227,0.5263672-0.7060547   L89.5625,51.9331055c-0.0498047-0.3408203-0.3725586-0.5751953-0.7060547-0.5263672   C88.5161133,51.456543,88.2802734,51.7724609,88.3300781,52.112793z M57.034668,70.7705078l-0.4375,0.8994141   c-0.1503906,0.3095703-0.0214844,0.6821289,0.2875977,0.8325195c0.0878906,0.0424805,0.1806641,0.0629883,0.2719727,0.0629883   c0.230957,0,0.4526367-0.1289062,0.5605469-0.3505859l0.4375-0.8994141   c0.1503906-0.3095703,0.0214844-0.6821289-0.2875977-0.8325195C57.5571289,70.3325195,57.1850586,70.4614258,57.034668,70.7705078z    M58.6337891,68.9052734c0.0878906,0.0424805,0.1806641,0.0629883,0.2719727,0.0629883   c0.230957,0,0.4526367-0.1289062,0.5605469-0.3505859l0.4375-0.8994141   c0.1503906-0.3095703,0.0214844-0.6821289-0.2875977-0.8325195c-0.3095703-0.1499023-0.6816406-0.0219727-0.8325195,0.2875977   l-0.4375,0.8994141C58.1958008,68.3823242,58.324707,68.7548828,58.6337891,68.9052734z M70.3979492,46.1342773   c0.1503906-0.3095703,0.0214844-0.6821289-0.2875977-0.8325195c-0.3105469-0.1489258-0.6821289-0.0219727-0.8325195,0.2875977   l-0.4375,0.8994141c-0.1503906,0.3095703-0.0214844,0.6821289,0.2875977,0.8325195   c0.0878906,0.0424805,0.1806641,0.0629883,0.2719727,0.0629883c0.230957,0,0.4526367-0.1289062,0.5605469-0.3505859   L70.3979492,46.1342773z M55.9682617,75.8125l0.4375-0.8994141c0.1503906-0.3095703,0.0214844-0.6821289-0.2875977-0.8325195   c-0.3100586-0.1499023-0.6821289-0.0219727-0.8325195,0.2875977l-0.4375,0.8994141   c-0.1503906,0.3095703-0.0214844,0.6821289,0.2875977,0.8325195c0.0878906,0.0424805,0.1806641,0.0629883,0.2719727,0.0629883   C55.6386719,76.1630859,55.8603516,76.0341797,55.9682617,75.8125z M81.3710938,22.1396484   c0.0878906,0.0424805,0.1806641,0.0629883,0.2719727,0.0629883c0.230957,0,0.4526367-0.1289062,0.5605469-0.3505859   l0.4375-0.8994141c0.1503906-0.3095703,0.0214844-0.6821289-0.2875977-0.8325195   c-0.3110352-0.1508789-0.6816406-0.0219727-0.8325195,0.2875977l-0.4375,0.8994141   C80.9331055,21.6166992,81.0620117,21.9892578,81.3710938,22.1396484z M66.6123047,52.496582   c-0.3105469-0.1508789-0.6816406-0.0219727-0.8325195,0.2875977l-0.4375,0.8989258   c-0.1503906,0.309082-0.0219727,0.6821289,0.2875977,0.8325195c0.0878906,0.0424805,0.1806641,0.0629883,0.2719727,0.0629883   c0.230957,0,0.4526367-0.1289062,0.5605469-0.3505859l0.4375-0.8989258   C67.050293,53.0200195,66.921875,52.6469727,66.6123047,52.496582z M80.6044922,23.7177734   c-0.3095703-0.1499023-0.6821289-0.0219727-0.8325195,0.2875977l-0.4375,0.8994141   c-0.1503906,0.3095703-0.0214844,0.6821289,0.2875977,0.8325195c0.0878906,0.0424805,0.1806641,0.0629883,0.2719727,0.0629883   c0.230957,0,0.4526367-0.1289062,0.5605469-0.3505859l0.4375-0.8994141   C81.0424805,24.2407227,80.9135742,23.8681641,80.6044922,23.7177734z M62.1318359,61.7104492   c0.0878906,0.0424805,0.1806641,0.0629883,0.2719727,0.0629883c0.230957,0,0.4526367-0.1289062,0.5605469-0.3505859   l0.4375-0.8994141c0.1503906-0.3095703,0.0214844-0.6821289-0.2875977-0.8325195   c-0.3095703-0.1499023-0.6816406-0.0219727-0.8325195,0.2875977l-0.4375,0.8994141   C61.6938477,61.1875,61.8227539,61.5600586,62.1318359,61.7104492z M61.3652344,63.2885742   c-0.3095703-0.1494141-0.6821289-0.0219727-0.8325195,0.2875977l-0.4375,0.8994141   c-0.1503906,0.3095703-0.0214844,0.6821289,0.2875977,0.8325195c0.0878906,0.0424805,0.1806641,0.0629883,0.2719727,0.0629883   c0.230957,0,0.4526367-0.1289062,0.5605469-0.3505859l0.4375-0.8994141   C61.8032227,63.8115234,61.6743164,63.4389648,61.3652344,63.2885742z M64.8632812,56.09375   c-0.3110352-0.1494141-0.6826172-0.0219727-0.8325195,0.2875977l-0.4375,0.8994141   c-0.1503906,0.3095703-0.0214844,0.6821289,0.2875977,0.8325195c0.0878906,0.0424805,0.1806641,0.0629883,0.2719727,0.0629883   c0.230957,0,0.4526367-0.1289062,0.5605469-0.3505859l0.4375-0.8994141   C65.3012695,56.6166992,65.1723633,56.2441406,64.8632812,56.09375z M72.7758789,38.3945312l-0.4375,0.8994141   c-0.1503906,0.3095703-0.0214844,0.6821289,0.2875977,0.8325195c0.0878906,0.0424805,0.1806641,0.0629883,0.2719727,0.0629883   c0.230957,0,0.4526367-0.1289062,0.5605469-0.3505859l0.4375-0.8994141   c0.1503906-0.3095703,0.0214844-0.6821289-0.2875977-0.8325195C73.2983398,37.9575195,72.9262695,38.0849609,72.7758789,38.3945312   z M76.2739258,31.199707l-0.4375,0.8994141c-0.1503906,0.3095703-0.0214844,0.6821289,0.2875977,0.8325195   c0.0878906,0.0424805,0.1806641,0.0629883,0.2719727,0.0629883c0.230957,0,0.4526367-0.1289062,0.5605469-0.3505859   l0.4375-0.8994141c0.1503906-0.3095703,0.0214844-0.6821289-0.2875977-0.8325195   C76.796875,30.7626953,76.4243164,30.8901367,76.2739258,31.199707z M67.3789062,50.918457   c0.0878906,0.0424805,0.1806641,0.0629883,0.2719727,0.0629883c0.230957,0,0.4526367-0.1289062,0.5605469-0.3505859   l0.4375-0.8994141c0.1503906-0.3095703,0.0214844-0.6821289-0.2875977-0.8325195   c-0.3105469-0.1499023-0.6816406-0.0219727-0.8325195,0.2875977l-0.4375,0.8994141   C66.940918,50.3955078,67.0698242,50.7680664,67.3789062,50.918457z M77.8730469,29.3344727   c0.0878906,0.0424805,0.1806641,0.0629883,0.2719727,0.0629883c0.230957,0,0.4526367-0.1289062,0.5605469-0.3505859   l0.4375-0.8994141c0.1503906-0.3095703,0.0214844-0.6821289-0.2875977-0.8325195   c-0.3095703-0.1503906-0.6816406-0.0224609-0.8325195,0.2875977l-0.4375,0.8994141   C77.4350586,28.8115234,77.5639648,29.184082,77.8730469,29.3344727z M74.375,36.5292969   c0.0878906,0.0424805,0.1806641,0.0629883,0.2719727,0.0629883c0.230957,0,0.4526367-0.1289062,0.5605469-0.3505859   l0.4375-0.8994141c0.1503906-0.3095703,0.0214844-0.6821289-0.2875977-0.8325195   c-0.3100586-0.1503906-0.6816406-0.0214844-0.8325195,0.2875977l-0.4375,0.8994141   C73.9370117,36.0063477,74.065918,36.3789062,74.375,36.5292969z M70.8769531,43.7236328   c0.0878906,0.0424805,0.1806641,0.0629883,0.2719727,0.0629883c0.230957,0,0.4526367-0.1289062,0.5605469-0.3505859   l0.4375-0.8989258c0.1503906-0.309082,0.0219727-0.6821289-0.2875977-0.8325195   c-0.3100586-0.1503906-0.6821289-0.0214844-0.8325195,0.2875977l-0.4375,0.8989258   C70.4389648,43.2001953,70.5673828,43.5732422,70.8769531,43.7236328z"/></g><text x="0" y="115" fill="#000000" font-size="5px" font-weight="bold" font-family="'Helvetica Neue', Helvetica, Arial-Unicode, Arial, Sans-serif">Created by Path Lord</text><text x="0" y="120" fill="#000000" font-size="5px" font-weight="bold" font-family="'Helvetica Neue', Helvetica, Arial-Unicode, Arial, Sans-serif">from the Noun Project</text></svg>