<svg xmlns="http://www.w3.org/2000/svg" xmlns:xlink="http://www.w3.org/1999/xlink" version="1.1" x="0px" y="0px" viewBox="0 0 100 125" enable-background="new 0 0 100 100" xml:space="preserve"><path d="M64.3,37.5c-0.1,0-0.2,0-0.3-0.1l-3.7-2l-3.7,2c-0.2,0.1-0.5,0.1-0.7,0c-0.2-0.1-0.3-0.4-0.3-0.6l0.7-4.1l-3-2.9  c-0.2-0.2-0.2-0.4-0.2-0.6c0.1-0.2,0.3-0.4,0.5-0.4l4.2-0.6l1.9-3.8c0.1-0.2,0.3-0.4,0.6-0.4s0.5,0.1,0.6,0.4l1.9,3.8l4.2,0.6  c0.2,0,0.4,0.2,0.5,0.4c0.1,0.2,0,0.5-0.2,0.6l-3,2.9l0.7,4.1c0,0.2-0.1,0.5-0.3,0.6C64.5,37.5,64.4,37.5,64.3,37.5z M60.3,34.1  c0.1,0,0.2,0,0.3,0.1l2.9,1.5l-0.6-3.2c0-0.2,0-0.4,0.2-0.6l2.3-2.3l-3.2-0.5c-0.2,0-0.4-0.2-0.5-0.3L60.3,26l-1.4,2.9  c-0.1,0.2-0.3,0.3-0.5,0.3l-3.2,0.5l2.3,2.3c0.1,0.1,0.2,0.4,0.2,0.6l-0.6,3.2l2.9-1.5C60.1,34.2,60.2,34.1,60.3,34.1z M25.4,51.1  c0,0-0.1,0-0.1,0c-0.1,0-0.2-0.2-0.3-0.3l-0.7-3.7l-3.3-1.6c-0.1-0.1-0.2-0.2-0.2-0.3c0-0.1,0.1-0.3,0.2-0.3l3.1-1.7l0.3-3.7  c0-0.1,0.1-0.3,0.2-0.3c0.1-0.1,0.3,0,0.4,0.1l2.6,2.6l3.5-0.7c0.1,0,0.3,0,0.4,0.1c0.1,0.1,0.1,0.3,0,0.4L30.1,45l1.8,3.2  c0,0.1,0.1,0.1,0.1,0.2c0,0.2-0.2,0.4-0.4,0.4c0,0,0,0,0,0c0,0,0,0-0.1,0l-3.5-0.6L25.7,51C25.6,51,25.5,51.1,25.4,51.1z M22.1,45.1  l2.8,1.4c0.1,0.1,0.2,0.2,0.2,0.3l0.6,3.1l2-2.2c0.1-0.1,0.2-0.1,0.3-0.1l2.9,0.5l-1.5-2.8c-0.1-0.1-0.1-0.2,0-0.3l1.3-2.8l-2.9,0.6  c-0.1,0-0.3,0-0.3-0.1l-2.2-2.2l-0.3,3.1c0,0.1-0.1,0.2-0.2,0.3L22.1,45.1z M45.7,56.3c-0.1,0-0.1,0-0.2-0.1l-1.8-1.6l-2.3,0.7  c-0.1,0-0.2,0-0.3-0.1c-0.1-0.1-0.1-0.2-0.1-0.3l1-2.4l-1.3-2.2c0-0.1,0-0.2,0-0.3c0-0.1,0.1-0.1,0.2-0.1l2.4,0.1l1.5-2.1  C45,48,45.1,48,45.2,48c0.1,0,0.2,0.1,0.2,0.2l0.5,2.5l2.2,0.9c0.1,0,0.1,0.1,0.2,0.2c0,0.1,0,0.2-0.1,0.2l-2.1,1.4L45.9,56  C45.9,56.1,45.9,56.2,45.7,56.3C45.7,56.3,45.7,56.3,45.7,56.3z M43.8,54c0.1,0,0.1,0,0.2,0.1l1.5,1.4l0.1-2.2c0-0.1,0-0.1,0.1-0.2  l1.8-1.2l-1.9-0.7c-0.1,0-0.1-0.1-0.2-0.2L45,48.8l-1.3,1.7c-0.1,0.1-0.1,0.1-0.2,0.1l-2-0.1l1.1,1.9c0,0.1,0,0.1,0,0.2l-0.8,2.1  L43.8,54C43.7,54,43.8,54,43.8,54z M23.3,71.3c-0.2,0-0.3-0.1-0.4-0.2l-2-2.6l-3.3,0.2c-0.2,0-0.4-0.1-0.5-0.3  c-0.1-0.2-0.1-0.4,0-0.5l1.9-2.7L17.8,62c-0.1-0.2,0-0.4,0.1-0.5c0.1-0.1,0.3-0.2,0.5-0.1l3.2,1l2.6-2.1c0.2-0.1,0.4-0.1,0.5-0.1  c0.2,0.1,0.3,0.3,0.3,0.4l0.1,3.3l2.8,1.8c0.2,0.1,0.2,0.3,0.2,0.5c0,0.2-0.2,0.4-0.3,0.4l-3.1,1.1l-0.9,3.2  C23.7,71.1,23.5,71.3,23.3,71.3C23.3,71.3,23.3,71.3,23.3,71.3z M21.1,67.4c0.2,0,0.3,0.1,0.4,0.2l1.5,2l0.7-2.5  c0-0.2,0.2-0.3,0.3-0.3l2.4-0.8l-2.1-1.4c-0.1-0.1-0.2-0.2-0.2-0.4L24,61.7l-2,1.6c-0.1,0.1-0.3,0.1-0.5,0.1l-2.4-0.7L20,65  c0.1,0.2,0,0.3-0.1,0.5l-1.5,2.1L21.1,67.4C21.1,67.4,21.1,67.4,21.1,67.4z M53.4,12.2c-0.1,0-0.1,0-0.2,0c-0.2-0.1-0.3-0.2-0.3-0.4  l-0.2-2.9l-2.5-1.5c-0.2-0.1-0.3-0.3-0.3-0.5c0-0.2,0.1-0.4,0.3-0.4l2.7-1.1l0.6-2.9c0-0.2,0.2-0.3,0.4-0.4c0.2,0,0.4,0,0.5,0.2  l1.9,2.2l2.9-0.3c0.2,0,0.4,0.1,0.5,0.2c0.1,0.2,0.1,0.4,0,0.5l-1.5,2.5l1.2,2.6c0,0.1,0.1,0.2,0.1,0.3c0,0.3-0.2,0.5-0.5,0.5  c0,0,0,0,0,0c0,0-0.1,0-0.1,0l-2.9-0.7l-2.2,2C53.6,12.1,53.5,12.2,53.4,12.2z M51.5,6.9L53.4,8c0.1,0.1,0.2,0.2,0.3,0.4l0.2,2.2  l1.6-1.5C55.6,9,55.7,9,55.9,9L58,9.5l-0.9-2c-0.1-0.2-0.1-0.3,0-0.5l1.1-1.9l-2.2,0.2c-0.2,0-0.3,0-0.4-0.2l-1.4-1.7l-0.5,2.1  c0,0.2-0.1,0.3-0.3,0.4L51.5,6.9z M8,37.4c-0.1,0-0.1,0-0.2-0.1l-2.1-1.6l-2.6,0.8c-0.1,0-0.2,0-0.3-0.1c-0.1-0.1-0.1-0.2-0.1-0.3  l0.9-2.5l-1.6-2.2c-0.1-0.1-0.1-0.2,0-0.3c0-0.1,0.1-0.1,0.2-0.1L5,31.2L6.6,29c0.1-0.1,0.2-0.1,0.2-0.1C7,28.9,7,29,7.1,29.1  l0.8,2.6l2.6,0.8c0.1,0,0.2,0.1,0.2,0.2c0,0.1,0,0.2-0.1,0.2l-2.2,1.5l0,2.7c0,0.1-0.1,0.2-0.1,0.2C8.1,37.4,8,37.4,8,37.4z   M5.8,35.2c0.1,0,0.1,0,0.2,0.1l1.8,1.4l0-2.3c0-0.1,0-0.2,0.1-0.2l1.9-1.3l-2.2-0.7c-0.1,0-0.1-0.1-0.2-0.2l-0.7-2.2l-1.4,1.9  c0,0.1-0.1,0.1-0.2,0.1l-2.3-0.1l1.4,1.9c0,0.1,0.1,0.2,0,0.2l-0.8,2.2L5.8,35.2C5.7,35.2,5.7,35.2,5.8,35.2z M67.1,12.3  C67.1,12.3,67.1,12.3,67.1,12.3c-0.1,0-0.2-0.1-0.2-0.2l-0.4-1.3l-1.3-0.4c-0.1,0-0.2-0.1-0.2-0.2c0-0.1,0-0.2,0.1-0.2l1.1-0.8  l0-1.4c0-0.1,0.1-0.2,0.1-0.2c0.1,0,0.2,0,0.3,0l1.1,0.9L69.1,8c0.1,0,0.2,0,0.3,0.1c0.1,0.1,0.1,0.2,0.1,0.3l-0.5,1.3l0.8,1.1  c0.1,0.1,0.1,0.2,0,0.3c0,0.1-0.1,0.1-0.2,0.1l-1.4,0l-0.8,1.1C67.3,12.3,67.2,12.3,67.1,12.3z M65.8,10l1,0.3  c0.1,0,0.1,0.1,0.2,0.2l0.3,1l0.6-0.8c0-0.1,0.1-0.1,0.2-0.1l1,0l-0.6-0.8c0-0.1-0.1-0.2,0-0.2l0.3-0.9l-1,0.3c-0.1,0-0.2,0-0.2,0  l-0.8-0.6l0,1c0,0.1,0,0.2-0.1,0.2L65.8,10z M80.3,54.2c-0.1,0-0.2,0-0.3-0.1l-2.1-1.8L75.2,53c-0.2,0-0.4,0-0.5-0.2  c-0.1-0.1-0.2-0.4-0.1-0.5l1.1-2.5l-1.5-2.3c-0.1-0.2-0.1-0.4,0-0.5c0.1-0.2,0.3-0.3,0.5-0.2l2.7,0.2l1.7-2.1  c0.1-0.1,0.3-0.2,0.5-0.2c0.2,0,0.3,0.2,0.4,0.4l0.6,2.7l2.5,1c0.2,0.1,0.3,0.2,0.3,0.4c0,0.2-0.1,0.4-0.2,0.5L80.9,51l-0.2,2.7  c0,0.2-0.1,0.4-0.3,0.4C80.4,54.2,80.3,54.2,80.3,54.2z M78,51.3c0.1,0,0.2,0,0.3,0.1l1.5,1.3l0.1-2c0-0.2,0.1-0.3,0.2-0.4l1.7-1  L80,48.6c-0.2-0.1-0.3-0.2-0.3-0.4l-0.5-1.9L78,47.8C77.9,48,77.7,48,77.6,48l-2-0.2l1.1,1.7c0.1,0.1,0.1,0.3,0,0.5L76,51.8l1.9-0.5  C77.9,51.3,78,51.3,78,51.3z M35.4,98c0,0-0.1,0-0.1,0c-0.1,0-0.1-0.1-0.1-0.2l0.1-2.7l-2.1-1.6C33,93.4,33,93.3,33,93.2  c0-0.1,0.1-0.2,0.2-0.2l2.6-0.7l0.9-2.5c0-0.1,0.1-0.2,0.2-0.2c0.1,0,0.2,0,0.2,0.1l1.5,2.3l2.7,0.1c0.1,0,0.2,0.1,0.2,0.1  s0,0.2,0,0.3l-1.7,2.1l0.8,2.6c0,0.1,0,0.2-0.1,0.3c-0.1,0.1-0.2,0.1-0.3,0.1l-2.5-1L35.5,98C35.5,98,35.4,98,35.4,98z M33.8,93.3  l1.8,1.4c0.1,0.1,0.1,0.1,0.1,0.2l-0.1,2.3l1.9-1.3c0.1,0,0.2-0.1,0.2,0l2.2,0.8l-0.7-2.2c0-0.1,0-0.2,0-0.2l1.5-1.8l-2.3-0.1  c-0.1,0-0.2,0-0.2-0.1L37,90.4l-0.8,2.2c0,0.1-0.1,0.1-0.2,0.2L33.8,93.3z M93.2,67.9C93.1,67.9,93.1,67.9,93.2,67.9  c-0.1,0-0.2-0.1-0.2-0.2l-0.7-2.6l-2.6-0.9c-0.1,0-0.2-0.1-0.2-0.2c0-0.1,0-0.2,0.1-0.2l2.2-1.5l0-2.7c0-0.1,0.1-0.2,0.1-0.2  c0.1,0,0.2,0,0.3,0l2.1,1.7l2.6-0.8c0.1,0,0.2,0,0.3,0.1c0.1,0.1,0.1,0.2,0.1,0.3l-0.9,2.5l1.6,2.2c0.1,0.1,0.1,0.2,0,0.3  s-0.1,0.1-0.2,0.1L95,65.6l-1.6,2.2C93.3,67.8,93.2,67.9,93.2,67.9z M90.3,63.9l2.2,0.7c0.1,0,0.1,0.1,0.2,0.2l0.6,2.2l1.4-1.9  c0-0.1,0.1-0.1,0.2-0.1l2.3,0.1l-1.3-1.9c0-0.1-0.1-0.2,0-0.2l0.8-2.2l-2.2,0.7c-0.1,0-0.2,0-0.2,0l-1.8-1.4l0,2.3  c0,0.1,0,0.2-0.1,0.2L90.3,63.9z M84.4,12.1C84.4,12.1,84.4,12.1,84.4,12.1c-0.1,0-0.2-0.1-0.2-0.2l-0.4-1.6l-1.6-0.5  c-0.1,0-0.2-0.1-0.2-0.2s0-0.2,0.1-0.2l1.4-1l0-1.7c0-0.1,0.1-0.2,0.1-0.2c0.1,0,0.2,0,0.3,0l1.3,1L86.8,7c0.1,0,0.2,0,0.3,0.1  c0.1,0.1,0.1,0.2,0.1,0.3L86.6,9l0.9,1.3c0.1,0.1,0.1,0.2,0,0.3c0,0.1-0.1,0.1-0.2,0.1l-1.7,0l-1,1.4C84.6,12.1,84.5,12.1,84.4,12.1  z M82.8,9.5L84,9.9c0.1,0,0.1,0.1,0.2,0.2l0.3,1.2l0.8-1c0-0.1,0.1-0.1,0.2-0.1l1.3,0l-0.7-1C86,9.1,86,9,86,8.9l0.5-1.2l-1.2,0.4  c-0.1,0-0.2,0-0.2,0l-1-0.8l0,1.3c0,0.1,0,0.2-0.1,0.2L82.8,9.5z M81.8,7.1c0-0.3-0.2-0.5-0.5-0.6L62,4.8c-0.3,0-0.5,0.2-0.6,0.5  c0,0.3,0.2,0.5,0.5,0.6l19.4,1.8c0,0,0,0,0,0C81.6,7.6,81.8,7.4,81.8,7.1z M62.1,20l19.3-7.9c0.3-0.1,0.4-0.4,0.3-0.7  c-0.1-0.3-0.4-0.4-0.7-0.3l-19.3,7.9c-0.3,0.1-0.4,0.4-0.3,0.7c0.1,0.2,0.3,0.3,0.5,0.3C62,20.1,62,20.1,62.1,20z M59.8,22.9  c0.3-0.1,0.4-0.4,0.3-0.7l-4-9.7c-0.1-0.3-0.4-0.4-0.7-0.3c-0.3,0.1-0.4,0.4-0.3,0.7l4,9.7c0.1,0.2,0.3,0.3,0.5,0.3  C59.7,22.9,59.7,22.9,59.8,22.9z M33.9,41.6l19-7.4c0.3-0.1,0.4-0.4,0.3-0.7c-0.1-0.3-0.4-0.4-0.7-0.3l-19,7.4  c-0.3,0.1-0.4,0.4-0.3,0.7c0.1,0.2,0.3,0.3,0.5,0.3C33.8,41.7,33.9,41.6,33.9,41.6z M21.8,58.3l1.3-7.5c0-0.3-0.1-0.5-0.4-0.6  c-0.3,0-0.5,0.1-0.6,0.4l-1.3,7.5c0,0.3,0.1,0.5,0.4,0.6c0,0,0.1,0,0.1,0C21.5,58.7,21.7,58.5,21.8,58.3z M33.7,89.8  c0.3-0.1,0.4-0.4,0.3-0.7l-7-19c-0.1-0.3-0.4-0.4-0.7-0.3c-0.3,0.1-0.4,0.4-0.3,0.7l7,19c0.1,0.2,0.3,0.3,0.5,0.3  C33.6,89.8,33.7,89.8,33.7,89.8z M75.6,45.1c0.2-0.2,0.2-0.5,0-0.7l-8.5-9.7c-0.2-0.2-0.5-0.2-0.7,0c-0.2,0.2-0.2,0.5,0,0.7l8.5,9.7  c0.1,0.1,0.2,0.2,0.4,0.2C75.4,45.2,75.5,45.1,75.6,45.1z M89.8,60.3c0.2-0.2,0.2-0.5,0-0.7l-6.2-6.9c-0.2-0.2-0.5-0.2-0.7,0  c-0.2,0.2-0.2,0.5,0,0.7l6.2,6.9c0.1,0.1,0.2,0.2,0.4,0.2C89.6,60.4,89.7,60.3,89.8,60.3z M21.1,42.5c0.1-0.2,0.1-0.6-0.2-0.7  l-10.4-6.2c-0.2-0.1-0.6-0.1-0.7,0.2c-0.1,0.2-0.1,0.6,0.2,0.7l10.4,6.2c0.1,0,0.2,0.1,0.3,0.1C20.9,42.7,21,42.7,21.1,42.5z   M49.3,50.6l22.3-2.2c0.3,0,0.5-0.3,0.5-0.6c0-0.3-0.3-0.5-0.6-0.5l-22.3,2.2c-0.3,0-0.5,0.3-0.5,0.6C48.7,50.4,48.9,50.6,49.3,50.6  C49.2,50.6,49.2,50.6,49.3,50.6z M29.3,63.5l10.3-8.6c0.2-0.2,0.2-0.5,0.1-0.7c-0.2-0.2-0.5-0.2-0.7-0.1l-10.3,8.6  c-0.2,0.2-0.2,0.5-0.1,0.7c0.1,0.1,0.2,0.2,0.4,0.2C29,63.6,29.2,63.6,29.3,63.5z"/><text x="0" y="115" fill="#000000" font-size="5px" font-weight="bold" font-family="'Helvetica Neue', Helvetica, Arial-Unicode, Arial, Sans-serif">Created by Amanda Wray</text><text x="0" y="120" fill="#000000" font-size="5px" font-weight="bold" font-family="'Helvetica Neue', Helvetica, Arial-Unicode, Arial, Sans-serif">from the Noun Project</text></svg>